<svg xmlns="http://www.w3.org/2000/svg" version="1.1" xmlns:xlink="http://www.w3.org/1999/xlink" width="512" height="512" x="0" y="0" viewBox="0 0 128 128" style="enable-background:new 0 0 512 512" xml:space="preserve" class=""><g><g fill="#505050"><path d="M24.347 16.2a2 2 0 1 0-3.2-2.4l-6.747 9a2 2 0 0 0 0 2.4l6.747 9a2 2 0 0 0 3.2-2.4L20 26H81.85l-4.583 5.754a2 2 0 0 0 3.129 2.492l7.168-9a2 2 0 0 0 0-2.492l-7.168-9a2 2 0 1 0-3.13 2.492L81.85 22H20z" fill="#505050" opacity="1" data-original="#505050" class=""></path><path fill-rule="evenodd" d="M14 44.5a4 4 0 0 1 4-4h66.5a4 4 0 0 1 4 4V112a4 4 0 0 1-4 4H18a4 4 0 0 1-4-4zm70.5 0H18V112h66.5z" clip-rule="evenodd" fill="#505050" opacity="1" data-original="#505050" class=""></path><path d="M95.4 106.053a2 2 0 0 1 2.8-.4l5.8 4.348v-61.85l-5.754 4.582a2 2 0 1 1-2.492-3.129l9-7.168a2 2 0 0 1 2.492 0l9 7.168a2 2 0 1 1-2.492 3.13L108 48.15v61.851l5.8-4.348a2 2 0 0 1 2.4 3.2l-9 6.747a2.001 2.001 0 0 1-2.4 0l-9-6.747a2 2 0 0 1-.4-2.8z" fill="#505050" opacity="1" data-original="#505050" class=""></path></g></g></svg>