<svg height="512" viewBox="0 0 68 68" width="512" xmlns="http://www.w3.org/2000/svg"><g id="Page-1" fill="none" fill-rule="evenodd"><g id="shelter_export" fill="#505050" fill-rule="nonzero" transform="translate(-536 -776)"><path id="car,-vehicle,-drive,-roof,-home,-garage" d="m544 836c-2.209139 0-4-1.790861-4-4v-7.507577c0-.490571.060164-.979291.179145-1.455214l.910427-3.64171c.167479-.669915.42674-1.297588.762348-1.870966l-2.336991-.584248c-1.07159-.267897-1.723111-1.353766-1.455214-2.425356s1.353766-1.723111 2.425356-1.455214l3.76114.940285h2.338759l3.645247-10.328201c1.4111-3.998117 5.190076-6.671799 9.429904-6.671799h20.679758c4.239828 0 8.018804 2.673682 9.429904 6.671799l3.645247 10.328201h2.338759l3.76114-.940285c1.07159-.267897 2.157459.383624 2.425356 1.455214s-.383624 2.157459-1.455214 2.425356l-2.336991.584248c.335608.573378.594869 1.201051.762348 1.870966l.910427 3.64171c.118981.475923.179145.964643.179145 1.455214v7.507577c0 2.209139-1.790861 4-4 4v4c0 2.209139-1.790861 4-4 4h-8c-2.209139 0-4-1.790861-4-4v-4h-20v4c0 2.209139-1.790861 4-4 4h-8c-2.209139 0-4-1.790861-4-4zm45.173205-22-3.175384-8.996921c-.84666-2.39887-3.114045-4.003079-5.657942-4.003079h-20.679758c-2.543897 0-4.811282 1.604209-5.657942 4.003079l-3.175384 8.996921zm-5.873459 18h12.700254v-7.507577c0-.163524-.020055-.326431-.059715-.485072l-.910428-3.64171c-.347575-1.390303-1.596765-2.365641-3.029857-2.365641h-44c-1.433092 0-2.682282.975338-3.029857 2.365641l-.910428 3.64171c-.03966.158641-.059715.321548-.059715.485072v7.507577h12.700254l3.472123-7.812277c.321003-.722256 1.037246-1.187723 1.827623-1.187723h16c.790377 0 1.50662.465467 1.827623 1.187723zm8.700254 4h-8v4h8zm-13.077524-4-2.222222-5h-13.400508l-2.222222 5zm-30.922476 4v4h8v-4zm-9.198362-42.167685c-1.01196.442732-2.19122-.018718-2.633953-1.030677-.442732-1.01196.018718-2.19122 1.030677-2.633953l32-14c.511041-.22358 1.092235-.22358 1.603276 0l32 14c1.011959.442733 1.473409 1.621993 1.030677 2.633953-.442733 1.011959-1.621993 1.473409-2.633953 1.030677l-31.198362-13.649284zm51.198362 33.167685c-1.656854 0-3-1.343146-3-3s1.343146-3 3-3 3 1.343146 3 3-1.343146 3-3 3zm-40 0c-1.656854 0-3-1.343146-3-3s1.343146-3 3-3 3 1.343146 3 3-1.343146 3-3 3z"/></g></g></svg>