<?xml version="1.0" encoding="UTF-8"?>
<svg xmlns="http://www.w3.org/2000/svg" id="Icons" viewBox="0 0 60 60" width="512" height="512"><path d="M59,58H52.816A2.966,2.966,0,0,0,53,57a14.463,14.463,0,0,0-1.247-5.746A16.942,16.942,0,0,0,57,39V37.722A1.993,1.993,0,0,0,58,36V34a2,2,0,0,0-2-2H11V13.03a5.033,5.033,0,0,1,1.626-3.693L15.4,6.79a2.942,2.942,0,0,1,2.743-.7,2.908,2.908,0,0,1,1.552.95,4.972,4.972,0,0,0-.026,4.242l.85,1.811h0a1,1,0,1,0,.85,1.81l9.054-4.246a1,1,0,0,0-.85-1.811l-.849-1.811a4.992,4.992,0,0,0-3.677-2.794,8.972,8.972,0,0,0-13.695-1.88l-2.79,2.56A11.029,11.029,0,0,0,5,13.03V32H4a2,2,0,0,0-2,2v2a1.993,1.993,0,0,0,1,1.722V39A16.942,16.942,0,0,0,8.247,51.254,14.463,14.463,0,0,0,7,57a2.966,2.966,0,0,0,.184,1H1a1,1,0,0,0,0,2H59a1,1,0,0,0,0-2Zm-8-1a1,1,0,0,1-2,0,10.214,10.214,0,0,0-.555-3.267,17.027,17.027,0,0,0,1.71-1.131A12.3,12.3,0,0,1,51,57ZM13.361,54.648A16.888,16.888,0,0,0,20,56H40a16.888,16.888,0,0,0,6.639-1.352A8.149,8.149,0,0,1,47,57a2.966,2.966,0,0,0,.184,1H12.816A2.966,2.966,0,0,0,13,57,8.149,8.149,0,0,1,13.361,54.648ZM26.916,7.887l.849,1.81-5.432,2.548-.85-1.81a3,3,0,1,1,5.433-2.548ZM7,13.03A9.022,9.022,0,0,1,9.917,6.4L12.7,3.838a6.989,6.989,0,0,1,10,.573,5.017,5.017,0,0,0-.633.223,4.916,4.916,0,0,0-1.17.8,4.974,4.974,0,0,0-6.852-.116L11.273,7.864A7.04,7.04,0,0,0,9,13.03V32H7ZM4,34H56v2H4Zm1,5V38H55v1A15.017,15.017,0,0,1,40,54H20A15.017,15.017,0,0,1,5,39ZM9,57a12.3,12.3,0,0,1,.845-4.4,17.027,17.027,0,0,0,1.71,1.131A10.214,10.214,0,0,0,11,57a1,1,0,0,1-2,0Z"/><path d="M12,41a1,1,0,0,0-1-1H9a1,1,0,0,0,0,2h2A1,1,0,0,0,12,41Z"/><path d="M15,42H37a1,1,0,0,0,0-2H15a1,1,0,0,0,0,2Z"/><path d="M24,17a1,1,0,0,0-2,0v1a1,1,0,0,0,2,0Z"/><path d="M23,23a1,1,0,0,0-1,1v1a1,1,0,0,0,2,0V24A1,1,0,0,0,23,23Z"/><path d="M27.47,15.152a1,1,0,0,0-.318,1.378l.53.848a1,1,0,1,0,1.7-1.06l-.53-.848A1,1,0,0,0,27.47,15.152Z"/><path d="M31.5,19.7a1,1,0,0,0-1.7,1.061l.706,1.129a1,1,0,0,0,1.7-1.061Z"/><path d="M33.152,26.13a1,1,0,1,0,1.7-1.06l-.53-.848a1,1,0,0,0-1.7,1.06Z"/><path d="M33.664,14.109a1,1,0,0,0-.277-1.386l-.832-.555a1,1,0,0,0-1.11,1.664l.832.555a1,1,0,0,0,1.387-.278Z"/><path d="M36.336,15.891a1,1,0,0,0,.277,1.386l.832.555a1,1,0,1,0,1.11-1.664l-.832-.555A1,1,0,0,0,36.336,15.891Z"/></svg>
