<svg xmlns="http://www.w3.org/2000/svg" version="1.1" xmlns:xlink="http://www.w3.org/1999/xlink" width="512" height="512" x="0" y="0" viewBox="0 0 96 94" style="enable-background:new 0 0 512 512" xml:space="preserve" fill-rule="evenodd" class=""><g><path d="M86.987 92.164v-74.1a9.215 9.215 0 0 0-9.093-9.214l-.208-.001a15.683 15.683 0 0 0-11.004 4.592l-3.64 3.64a1.502 1.502 0 0 0 0 2.122 1.502 1.502 0 0 0 2.122 0l3.64-3.64a12.68 12.68 0 0 1 9.051-3.713 6.215 6.215 0 0 1 6.132 6.214v74.1a1.5 1.5 0 0 0 3 0zm-28.565-78.26 4.362-4.361a21.194 21.194 0 0 1 15.181-6.206C86.01 3.441 92.5 9.995 92.5 18.064v74.1a1.5 1.5 0 0 0 3 0v-74.1C95.5 8.351 87.688.463 78.004.337l-.363-.001a24.19 24.19 0 0 0-16.978 7.086l-4.362 4.361a1.5 1.5 0 1 0 2.121 2.121z" fill="#505050" opacity="1" data-original="#505050" class=""></path><path d="M28.245 18.121c8.586-8.427 22.329-9.3 31.953-1.594 9.625 7.707 11.779 21.307 5.433 31.529a1.501 1.501 0 0 0 .483 2.066c.704.436 1.629.22 2.066-.484 7.135-11.494 4.716-26.787-6.107-35.453-10.822-8.665-26.274-7.681-35.93 1.795a1.5 1.5 0 0 0 2.102 2.141z" fill="#505050" opacity="1" data-original="#505050" class=""></path><path d="M32.628 19.48a8870.678 8870.678 0 0 0-4.129-3.306 6.537 6.537 0 0 0-9.19 1.017l-.001.001a6.538 6.538 0 0 0 1.018 9.189L59.302 57.59a6.543 6.543 0 0 0 4.806 1.395 6.542 6.542 0 0 0 4.384-2.412l.001-.001a6.536 6.536 0 0 0-1.017-9.19L36.981 22.966a1.5 1.5 0 0 0-1.875 2.341l30.495 24.417a3.542 3.542 0 0 1 .55 4.973l-.001.001a3.538 3.538 0 0 1-4.972.55L22.201 24.039a3.534 3.534 0 0 1-.551-4.972l.001-.001a3.542 3.542 0 0 1 4.973-.551l4.129 3.307a1.501 1.501 0 0 0 1.875-2.342zM2.84 74.082a14.325 14.325 0 0 1 8.044-2.475c5.753 0 10.709 3.44 12.923 8.373a4.51 4.51 0 0 0 4.6 2.659c.318-.025.657-.045 1.001-.045 4.081 0 7.507 2.827 8.422 6.629l.001.001a1.5 1.5 0 1 0 2.917-.7l-.001-.004c-1.233-5.118-5.845-8.926-11.339-8.926-.43 0-.855.024-1.273.058l-.04.003a1.513 1.513 0 0 1-1.547-.894l-.004-.009c-2.683-5.978-8.689-10.145-15.66-10.145a17.318 17.318 0 0 0-9.724 2.989 1.5 1.5 0 0 0 1.68 2.486zM8.594.336c-3.848 0-6.972 3.124-6.972 6.972s3.124 6.972 6.972 6.972 6.972-3.124 6.972-6.972S12.442.336 8.594.336zm0 3c2.193 0 3.972 1.78 3.972 3.972s-1.779 3.972-3.972 3.972c-2.192 0-3.972-1.78-3.972-3.972s1.78-3.972 3.972-3.972zM72.728 64.678c-3.872 0-7.016 3.144-7.016 7.016s3.144 7.016 7.016 7.016c3.873 0 7.017-3.144 7.017-7.016s-3.144-7.016-7.017-7.016zm0 3c2.217 0 4.017 1.8 4.017 4.016 0 2.217-1.8 4.016-4.017 4.016a4.018 4.018 0 0 1-4.016-4.016c0-2.216 1.8-4.016 4.016-4.016zM54.33 79.635a5.428 5.428 0 0 0-5.426 5.426 5.428 5.428 0 0 0 5.426 5.425 5.428 5.428 0 0 0 5.425-5.425 5.428 5.428 0 0 0-5.425-5.426zm0 3a2.427 2.427 0 1 1-2.426 2.426 2.427 2.427 0 0 1 2.426-2.426zM7.973 54.023a5.428 5.428 0 0 0-5.425 5.426c0 2.994 2.431 5.425 5.425 5.425s5.425-2.431 5.425-5.425a5.428 5.428 0 0 0-5.425-5.426zm0 3a2.427 2.427 0 0 1 0 4.851 2.426 2.426 0 0 1 0-4.851zM20.065 30.297 2.444 39.234a1.5 1.5 0 0 0 1.357 2.676l17.621-8.938a1.5 1.5 0 0 0-1.357-2.675zM49.159 55.828 42.57 79.002a1.5 1.5 0 0 0 2.885.821l6.59-23.175a1.502 1.502 0 0 0-1.033-1.853 1.501 1.501 0 0 0-1.853 1.033zM27.208 37.087l-15.49 10.519a1.501 1.501 0 0 0-.399 2.084 1.501 1.501 0 0 0 2.084.398l15.49-10.519a1.501 1.501 0 0 0 .399-2.084 1.502 1.502 0 0 0-2.084-.398zM33.718 66.624l-1.587 3.71a1.5 1.5 0 0 0 2.758 1.18l1.587-3.711a1.5 1.5 0 0 0-2.758-1.179zm7.459-17.439-5.135 12.004a1.5 1.5 0 0 0 2.759 1.18l5.134-12.005a1.5 1.5 0 0 0-2.758-1.179zM34.515 42.982 20.477 60.018a1.5 1.5 0 0 0 2.315 1.908L36.83 44.89a1.5 1.5 0 0 0-2.315-1.908z" fill="#505050" opacity="1" data-original="#505050" class=""></path></g></svg>