<svg width="34" height="35" viewBox="0 0 34 35" fill="none" xmlns="http://www.w3.org/2000/svg">
<path d="M24.7087 20.4055C24.2873 20.1941 22.2145 19.1754 21.8285 19.0335C21.4412 18.8931 21.1603 18.8235 20.8779 19.2463C20.5984 19.6677 19.7897 20.6169 19.5442 20.8979C19.2988 21.1802 19.0519 21.2142 18.6305 21.0043C18.2091 20.7914 16.8499 20.3473 15.2395 18.9115C13.9867 17.7935 13.1397 16.413 12.8942 15.9902C12.6488 15.5688 12.8687 15.3403 13.0787 15.1303C13.2688 14.9416 13.5015 14.638 13.7115 14.3926C13.9229 14.1457 13.9924 13.9698 14.1343 13.6874C14.2747 13.4065 14.2052 13.161 14.0988 12.9496C13.9924 12.7382 13.1496 10.6625 12.7992 9.81829C12.4558 8.99679 12.1082 9.10888 11.85 9.09469C11.5805 9.08396 11.3109 9.07923 11.0413 9.0805C10.7603 9.0805 10.3035 9.1855 9.91755 9.6083C9.53163 10.0297 8.44197 11.0498 8.44197 13.1256C8.44197 15.1999 9.95302 17.2047 10.163 17.487C10.3744 17.7679 13.1368 22.0272 17.3663 23.8532C18.3723 24.2874 19.1569 24.5471 19.7698 24.74C20.78 25.0621 21.6994 25.0167 22.4244 24.9074C23.2346 24.7868 24.9187 23.8873 25.2706 22.9026C25.6225 21.918 25.6225 21.0738 25.516 20.8979C25.4111 20.7219 25.1301 20.6169 24.7073 20.4055H24.7087ZM17.0159 30.909H17.0102C14.4986 30.9092 12.0331 30.2339 9.87214 28.9539L9.35995 28.6503L4.05215 30.0436L5.46813 24.8677L5.13471 24.3371C3.7307 22.1014 2.98795 19.5141 2.99229 16.8741C2.99371 9.14151 9.28617 2.85047 17.0216 2.85047C20.7673 2.85047 24.2888 4.31185 26.9363 6.96221C28.2426 8.26272 29.2779 9.80939 29.9825 11.5127C30.6871 13.216 31.0468 15.0422 31.0409 16.8854C31.0367 24.618 24.7456 30.909 17.0159 30.909ZM28.9524 4.9489C27.3892 3.37532 25.5291 2.12763 23.4802 1.27813C21.4312 0.428632 19.234 -0.00578346 17.0159 5.81397e-05C7.71554 5.81397e-05 0.146138 7.56946 0.141882 16.8727C0.141882 19.8465 0.917976 22.7494 2.39497 25.3075L0 34.0517L8.94566 31.705C11.4195 33.0528 14.1917 33.7591 17.0088 33.7594H17.0159C26.3148 33.7594 33.8857 26.19 33.8899 16.8854C33.8968 14.6682 33.4639 12.4716 32.6164 10.4228C31.7689 8.37388 30.5236 6.51339 28.9524 4.9489Z" fill="white"/>
</svg>
